<svg id="Layer_1" data-name="Layer 1" xmlns="http://www.w3.org/2000/svg" viewBox="0 0 1160.81 210.1"><defs><style>.cls-1{font-size:89px;font-family:Poppins-SemiBold, Poppins;font-weight:600;}.cls-2{font-size:60px;font-family:Poppins-Regular, Poppins;}</style></defs><path d="M317,97.83c12.56-9.09,23.25-24.59,19.78-49.72C332.25,15.77,307.93,0,272.91,0H193.79c-.21,0-.41,0-.61,0l-.4,0a14.29,14.29,0,0,0-7.51,3,16.61,16.61,0,0,0-2.44,2.38L103.71,139,24.32,5.47a13.61,13.61,0,0,0-15-4.8A13.44,13.44,0,0,0,0,13.46V196.78A13.56,13.56,0,0,0,13.37,210.1a13.38,13.38,0,0,0,13.36-13.32V62.22l66,110a13.69,13.69,0,0,0,11,5.33,12.8,12.8,0,0,0,10.69-5.33l65.76-110,21.63-35.48h71.12c22.72,0,35.28,7.22,37.42,24.59,2.41,21.65-8,35-27.8,37.16l-20.31.26a13.41,13.41,0,0,0-13.37,13.37c.27,7.22,6.15,13.36,13.37,13.36h.27l20.85-.26h.8c26.19,0,40.63,12.83,37.95,39-1.87,19.78-14.7,28.87-36.35,28.87h-78.6V141.4a13.5,13.5,0,1,0-27,0v55.2a13.5,13.5,0,0,0,13.5,13.5h92.1c35.55,0,60.41-20.32,63.08-53.46C351.23,126.43,334.66,104,317,97.83Z"/><text class="cls-1" transform="translate(372.46 98.14)">Mariana Borralho</text><text class="cls-2" transform="translate(597.68 175.6)">PSICÓLOGA</text></svg>