<?xml version="1.0" encoding="utf-8"?>
<!-- Generator: Adobe Illustrator 26.3.0, SVG Export Plug-In . SVG Version: 6.00 Build 0)  -->
<svg version="1.1" id="Layer_1" xmlns="http://www.w3.org/2000/svg" xmlns:xlink="http://www.w3.org/1999/xlink" x="0px" y="0px"
	 viewBox="0 0 1034.7 900.8" style="enable-background:new 0 0 1034.7 900.8;" xml:space="preserve">
<style type="text/css">
	.st0{font-family:'Poppins-SemiBold';}
	.st1{font-size:118.1835px;}
	.st2{font-family:'Poppins-Regular';}
	.st3{font-size:79.6743px;}
</style>
<path d="M939,289.5c37.2-26.9,68.8-72.8,58.5-147.1C984.1,46.7,912.1,0,808.5,0H574.4c-0.6,0-1.2,0-1.8,0h-1.2
	c-8.1,0.8-15.8,3.8-22.2,8.9c-2.6,2.1-5.1,4.5-7.2,7L307.8,411.3L72.9,16.2C62.6,2.5,44.8-3.2,28.5,2C12,7.3,0.9,22.6,0.9,39.8
	v542.5c0.4,21.7,17.9,39.1,39.6,39.4c21.8,0,39.4-17.6,39.5-39.4V184.1l195.3,325.5c7.8,10.1,19.8,15.9,32.6,15.8
	c12.5,0.3,24.3-5.6,31.6-15.8l194.6-325.5l64-105h210.5c67.2,0,104.4,21.4,110.7,72.8c7.1,64.1-23.7,103.6-82.3,110l-60.1,0.8
	c-21.8,0.1-39.5,17.7-39.6,39.6c0.8,21.4,18.2,39.5,39.6,39.5h0.8l61.7-0.8h2.4c77.5,0,120.2,38,112.3,115.4
	c-5.5,58.5-43.5,85.4-107.6,85.4H613.9V418.4c0-22.1-17.9-39.9-39.9-39.9c-22.1,0-39.9,17.9-39.9,39.9v163.4
	c0,22.1,17.9,39.9,39.9,39.9l0,0h272.5c105.2,0,178.8-60.1,186.7-158.2C1040.3,374.1,991.2,307.8,939,289.5z"/>
<text transform="matrix(1 0 0 1 -8.1528 790.6693)" class="st0 st1">Mariana Borralho</text>
<text transform="matrix(1 0 0 1 290.9106 893.5297)" class="st2 st3">PSICÓLOGA</text>
</svg>
