<?xml version="1.0" encoding="utf-8"?>
<!-- Generator: Adobe Illustrator 26.3.0, SVG Export Plug-In . SVG Version: 6.00 Build 0)  -->
<svg version="1.1" id="Layer_1" xmlns="http://www.w3.org/2000/svg" xmlns:xlink="http://www.w3.org/1999/xlink" x="0px" y="0px"
	 viewBox="0 0 256 256" style="enable-background:new 0 0 256 256;" xml:space="preserve">
<style type="text/css">
	.st0{display:none;}
</style>
<g transform="translate(1.4065934065934016 1.4065934065934016) scale(2.81 2.81)">
	<circle class="st0" cx="45" cy="45" r="45"/>
	<path d="M16.1,44.7c0,5.1,1.3,10.1,3.9,14.5l-4.1,15l15.4-4c4.2,2.3,9,3.5,13.9,3.5l0,0c16,0,29-13,29-29c0-7.7-3-15-8.5-20.5
		S53,15.7,45.2,15.7C29.1,15.8,16.1,28.8,16.1,44.7 M25.3,58.5l-0.6-0.9c-2.4-3.8-3.7-8.3-3.7-12.8c0-13.3,10.8-24.1,24.1-24.1
		c6.4,0,12.5,2.5,17,7.1s7.1,10.6,7.1,17c0,13.3-10.8,24.1-24.1,24.1l0,0c-4.3,0-8.6-1.2-12.3-3.4L32,65l-9.1,2.4L25.3,58.5z
		 M45.1,73.7L45.1,73.7L45.1,73.7L45.1,73.7"/>
	<path d="M37.9,32.6c-0.5-1.2-1.1-1.2-1.6-1.3c-0.4,0-0.9,0-1.4,0s-1.3,0.2-1.9,0.9c-0.7,0.7-2.5,2.5-2.5,6c0,3.6,2.6,7,3,7.5
		s5,8,12.4,10.9c6.1,2.4,7.4,1.9,8.7,1.8s4.3-1.8,4.9-3.4c0.6-1.7,0.6-3.1,0.4-3.4c-0.2-0.3-0.7-0.5-1.4-0.8s-4.3-2.1-4.9-2.4
		c-0.7-0.2-1.1-0.4-1.6,0.4c-0.5,0.7-1.9,2.4-2.3,2.8c-0.4,0.5-0.8,0.5-1.6,0.2c-0.7-0.4-3.1-1.1-5.8-3.6c-2.2-1.9-3.6-4.3-4-5
		s0-1.1,0.3-1.5c0.3-0.3,0.7-0.8,1.1-1.3c0.4-0.4,0.5-0.7,0.7-1.2s0.1-0.9-0.1-1.3C39.9,37.6,38.5,34.1,37.9,32.6"/>
</g>
</svg>
